<?xml version="1.0" encoding="utf-8"?>
<!-- Svg Vector Icons : http://www.onlinewebfonts.com/icon -->
<!DOCTYPE svg PUBLIC "-//W3C//DTD SVG 1.1//EN" "http://www.w3.org/Graphics/SVG/1.1/DTD/svg11.dtd">
<svg version="1.1" xmlns="http://www.w3.org/2000/svg" xmlns:xlink="http://www.w3.org/1999/xlink" x="0px" y="0px" viewBox="0 0 1000 1000" enable-background="new 0 0 1000 1000" xml:space="preserve">
<metadata> Svg Vector Icons : http://www.onlinewebfonts.com/icon </metadata>
<g><g transform="translate(0.000000,512.000000) scale(0.100000,-0.100000)"><path d="M6626.9,4826.9c-258.7-316.2-672.6-875.8-923.6-1249.4c-513.6-766.5-804.9-1347.2-898.8-1791.7c-82.4-392.8,32.6-931.3,283.6-1318.4c210.8-325.8,465.7-553.8,808.7-724.4c1082.7-536.6,2372.4-19.2,2788.2,1121c109.2,298.9,143.7,666.9,88.1,935.2c-93.9,438.8-410.1,1065.5-927.5,1826.2C7560.2,4045,7077.3,4690.8,6843.5,4961l-53.7,63.2L6626.9,4826.9z M7071.5,2577.1l3.8-446.5h440.8h440.8v-277.9v-277.9h-440.8h-440.8v-440.7V693.4h-287.4h-287.4v440.8v440.7h-440.8H5619v277.9v277.9h440.7h440.8v436.9c0,241.5,5.7,444.6,13.4,452.2c7.7,5.8,134.1,9.6,281.7,7.7l270.2-5.7L7071.5,2577.1z M5417.8,1184c42.2-159.1,109.2-320,184-444.6c80.5-132.2,281.7-325.8,425.4-408.2c61.3-34.5,109.2-67.1,109.2-72.8c0-5.7-61.3-5.7-134.1-1.9c-354.5,26.8-613.2,298.9-701.4,743.5c-38.3,195.5-28.7,492.5,23,651.5l34.5,105.4l13.4-230C5379.4,1400.5,5400.5,1245.3,5417.8,1184z"/><path d="M3491.9-973.8c-396.7-46-847-176.3-1224.5-356.4l-218.5-103.5h-973.5H100v-1331.8v-1331.8h1435.3h1435.3l199.3-107.3c459.9-247.2,812.5-381.4,1188.1-448.4c756.9-134.1,2046.6-174.4,2514.2-78.6c791.4,162.9,1684.4,624.7,2546.8,1314.6c390.9,314.3,481,458,481,766.5c0,241.4-47.9,360.3-216.6,528.9c-166.7,166.7-285.5,214.6-528.9,216.6c-155.2,1.9-185.9-3.8-298.9-57.5c-70.9-34.5-184-113.1-258.7-180.1c-609.4-555.7-1358.7-1002.2-1847.3-1098c-203.1-40.3-845.1-57.5-1259-32.6c-438.8,24.9-555.7,57.5-699.5,191.6l-101.6,93.9l1048.2,1.9c963.9,0,1055.9,1.9,1161.3,34.5c205,65.2,375.6,216.5,467.6,417.8c38.3,78.6,44.1,126.5,44.1,304.7c0,195.5-3.8,218.5-55.6,321.9c-109.2,216.5-314.3,371.8-546.2,415.8c-57.5,9.6-396.7,19.2-760.8,19.2H5389l-143.7,97.7c-258.7,174.4-590.2,306.6-931.3,371.8C4120.4-966.1,3691.2-950.8,3491.9-973.8z"/><path d="M8177.2-1843.8c-122.7-53.7-228-230-354.5-596c-42.2-124.6-72.8-230-69-233.8c9.6-9.6,822.1,640.1,831.7,665c9.6,26.8-147.6,151.4-220.4,170.6C8273-1811.2,8248.1-1813.1,8177.2-1843.8z"/></g></g>
</svg>